<?xml version="1.0" encoding="utf-8"?>

<svg version="1.1" id="Layer_1" xmlns="http://www.w3.org/2000/svg" xmlns:xlink="http://www.w3.org/1999/xlink" x="0px" y="0px"
	 viewBox="0 0 300 300" width="340" style="enable-background:new 0 0 300 300;" xml:space="preserve">
<style type="text/css">
	.st0{fill:#63d357;}
	.st1{fill:#000000;}
	.st2{opacity:0.07;}
	.st3{fill:#ffffff;}
	.st4{opacity:0.07;fill:#231f20;}
	#XMLID_5_{opacity:0.05;}
</style>
<g id="XMLID_89_">
	<path id="XMLID_41_" class="st0" d="M224.9,286.8c-1.2,0-2.4,0-3.7-0.1L60.2,275.2c-27.9-2-49-26.3-47-54.2L24.8,60
		c1.9-26.4,24.1-47.1,50.6-47.1c1.2,0,2.4,0,3.7,0.1l160.9,11.5c13.5,1,25.9,7.1,34.7,17.4s13.2,23.3,12.3,36.8l-11.5,160.9
		C273.5,266.1,251.3,286.8,224.9,286.8z"/>
	<path id="XMLID_38_" class="st1" d="M75.3,16.6c1.1,0,2.3,0,3.4,0.1l160.9,11.5c25.9,1.9,45.4,24.4,43.5,50.3l-11.5,160.9
		c-1.8,24.8-22.4,43.7-46.9,43.7c-1.1,0-2.3,0-3.4-0.1L60.5,271.5c-25.9-1.9-45.4-24.4-43.5-50.3L28.5,60.3
		C30.2,35.5,50.9,16.6,75.3,16.6 M75.3,9.1v7.4V9.1C75.3,9.1,75.3,9.1,75.3,9.1c-13.7,0-26.9,5.2-37,14.5C28.2,33.1,22,45.9,21,59.7
		L9.5,220.7c-2.1,30,20.5,56.1,50.4,58.2l160.9,11.5c1.3,0.1,2.6,0.1,3.9,0.1c13.7,0,26.9-5.2,37-14.5c10.2-9.4,16.3-22.2,17.3-36
		L290.6,79c2.1-30-20.5-56.1-50.4-58.2L79.3,9.3C77.9,9.2,76.6,9.1,75.3,9.1L75.3,9.1z"/>
</g>
<g id="XMLID_8_" class="st2">
	<path id="XMLID_34_" class="st1" d="M266.9,39.4c4.4,5.5,6.8,12.5,6.2,20l-13.3,186c-1.1,15.9-14.9,27.8-30.8,26.7l-186-13.3
		c-7.5-0.5-14.2-3.9-19-9c7.7,12.1,20.9,20.6,36.3,21.7L221.5,283c25.9,1.9,48.4-17.6,50.3-43.5l11.5-160.9
		C284.3,63,277.8,48.8,266.9,39.4z"/>
</g>
<ellipse id="XMLID_18_" transform="matrix(0.9933 0.1158 -0.1158 0.9933 14.2894 -11.2633)" class="st3" cx="104.1" cy="117.3" rx="26.7" ry="35.5"/>
<path id="XMLID_23_" class="st1" d="M102.3,156.5c-0.9,0-1.9-0.1-2.8-0.2c-16.7-2-28.3-21-25.8-42.6c2.5-21.5,18.2-37.4,34.9-35.5
	c8.3,1,15.6,6.1,20.4,14.4c4.7,7.9,6.6,18,5.4,28.2l-3.8-0.4l3.8,0.4C132,141.2,117.9,156.5,102.3,156.5z M105.8,85.8
	c-11.8,0-22.6,12.5-24.5,28.9c-2,17.3,6.5,32.6,19.1,34.1c12.5,1.5,24.4-11.4,26.4-28.8l0,0c1-8.6-0.6-16.9-4.4-23.4
	c-3.6-6.2-8.8-10-14.7-10.6C107.1,85.8,106.4,85.8,105.8,85.8z"/>
<ellipse id="XMLID_11_" class="st3" cx="194.4" cy="109.7" rx="30.6" ry="33.8"/>
<path id="XMLID_12_" class="st1" d="M194.4,147.4c-19,0-34.4-16.9-34.4-37.6s15.4-37.6,34.4-37.6c19,0,34.4,16.9,34.4,37.6
	S213.4,147.4,194.4,147.4z M194.4,79.7c-14.7,0-26.7,13.5-26.7,30s12,30,26.7,30c14.7,0,26.7-13.5,26.7-30S209.2,79.7,194.4,79.7z"
	/>
<path id="XMLID_35_" class="st1" d="M220.5,170.9c-1.5-3.5-4.5-6-8.2-7c-40.9-11-86.8-4.2-125.7,18.7c-3.2,1.9-5.4,5.1-6,8.8
	c-0.6,3.7,0.5,7.4,3,10.1c11.4,12.8,33.8,32.6,63.2,32.6c3.3,0,6.7-0.3,10.2-0.8c34.3-5.3,54.3-34.8,63.1-51.8
	C221.9,178.2,222,174.3,220.5,170.9z"/>
<path class="st3" d="M107.4,212.1l8.7-9.5c2.3-2.5,6.3-1.6,7.4,1.6l6.5,19.2c0,0-3.4-0.4-12.4-4.7
	C111.3,215.6,107.4,212.1,107.4,212.1z"/>
<path id="XMLID_1_" class="st3" d="M171.8,220.8l4.5-20.2c0.8-3.5,5.1-4.6,7.5-2l8.4,9.2c0,0-2.9,3-9.9,7.3
	C176,218.9,171.8,220.8,171.8,220.8z"/>
<ellipse class="st1" cx="187.2" cy="114.1" rx="13.3" ry="15.6"/>
<ellipse class="st1" cx="107.5" cy="120" rx="13.8" ry="16.4"/>
<circle class="st3" cx="103.5" cy="112.7" r="3"/>
<circle class="st3" cx="183.9" cy="105.8" r="3"/>
<path id="XMLID_3_" class="st4" d="M111.6,215.3c8.3,2.2,11.9,3.1,13.1-7.5l14.5,2.9l-4.1,16.9l-14.9-2.6L111.6,215.3z"/>
<path id="XMLID_4_" class="st4" d="M172.9,215.7c7.8-1.9,12.7-5.9,12.4-15.4h7.5l3.4,8.7L171,227.6l-3.7-9.9L172.9,215.7z"/>
<path id="XMLID_5_" class="st4" d="M167.3,86.8c-12.3,12.8-16.7,33.3-11,50.5c5.6,17,22.9,22.2,32.4,23.5
	c9.5,1.3,48.2-5.6,37.5-63.6c0,0-7.1-5.1-9.1-3.6c4,12.7,0.5,31.2-15.8,38.6c-11.5,5.2-30-0.4-32.6-12.7l-4.9-17.4L167.3,86.8z"/>
<path id="XMLID_6_" class="st4" d="M129.1,93.2c6.1,6.8,16.2,40.3-2,58.5c-14,14-40.6,13.6-49.9-13.7c0,0,2.2-4.4,6.6-2.7
	c6,8.4,20.3,10.9,28.3,5.3c14-9.7,15.6-26.3,10.5-45.1L129.1,93.2z"/>
</svg>
